<svg width="20" height="20" viewBox="0 0 20 20" fill="none" xmlns="http://www.w3.org/2000/svg">
<path d="M-6.01032e-07 6.25L-2.73196e-07 13.75C-1.22337e-07 17.2012 2.79875 20 6.25 20L13.75 20C17.2013 20 20 17.2012 20 13.75L20 6.25C20 2.79875 17.2012 -7.51891e-07 13.75 -6.01032e-07L6.25 -2.73196e-07C2.79875 -1.22337e-07 -7.51891e-07 2.79875 -6.01032e-07 6.25ZM13.75 1.875C16.1625 1.875 18.125 3.8375 18.125 6.25L18.125 13.75C18.125 16.1625 16.1625 18.125 13.75 18.125L6.25 18.125C3.8375 18.125 1.875 16.1625 1.875 13.75L1.875 6.25C1.875 3.8375 3.8375 1.875 6.25 1.875L13.75 1.875Z" fill="white"/>
</svg>
